<?xml version="1.0" encoding="utf-8"?>
<!-- Generator: Adobe Illustrator 20.1.0, SVG Export Plug-In . SVG Version: 6.00 Build 0)  -->
<svg version="1.1" id="Layer_1" xmlns="http://www.w3.org/2000/svg" xmlns:xlink="http://www.w3.org/1999/xlink" x="0px" y="0px"
	 viewBox="0 0 24 24" style="enable-background:new 0 0 24 24;" xml:space="preserve">
<style type="text/css">
	.st0{display:none;}
	.st1{display:inline;fill:#FFFFFF;}
	.st2{display:none;enable-background:new    ;}
	.st3{font-family:'NexaBold';}
	.st4{font-size:30.7861px;}
	.st5{enable-background:new    ;}
	.st6{fill:#FFFFFF;}
</style>
<g class="st0">
	<path class="st1" d="M23,0H1C0.4,0,0,0.4,0,1v22c0,0.6,0.4,1,1,1h22c0.6,0,1-0.4,1-1V1C24,0.4,23.6,0,23,0z M10,5c1.1,0,2,0.9,2,2
		s-0.9,2-2,2S8,8.1,8,7S8.9,5,10,5z M18.2,19H5.9c-0.8,0-1.3-0.9-0.8-1.6L7.3,14c0.4-0.5,1.1-0.6,1.5-0.2L11,16l3.1-3.9
		c0.4-0.5,1.3-0.5,1.6,0.1l3.3,5.3C19.5,18.1,19,19,18.2,19z"/>
</g>
<g class="st0">
	<path class="st1" d="M7.1,19.9h3.4V4.7H6.9V0.8h7.8v19.1h3.2v3.6H7.1V19.9z"/>
</g>
<g class="st2">
	<path class="st1" d="M2.7,7.2c0-4.9,4.6-7,8.9-7c4.6,0,9.6,1.9,9.6,7.3c0,5.8-4.4,7-9.2,7c-1.9,0-5,0.5-5,3v2h14.3v4H2.6
		c0-2,0-4,0-6c0-5.3,4.8-6.9,9.3-6.9c1.7,0,4.9-0.3,4.9-3c0-2.5-2.3-3.7-5.2-3.7C9.4,4,7.1,5.2,7,7.2H2.7z"/>
</g>
<text transform="matrix(1 0 0 1 1.7053 22.7162)" class="st2 st3 st4">4</text>
<g class="st5">
	<path class="st6" d="M19.8,4.6H7.6v4H12c4.8,0,9.1,2,9,7.2c0,5.1-4.3,7.6-8.8,7.6c-5,0-9.2-1.8-9.2-7h4.2c0,2.5,2.8,3.1,5,3.1
		c2.1,0,4.7-1,4.7-3.6c0-2.5-2.5-3.3-4.8-3.3H3.5c0-4.1,0-7.8,0-11.9h16.3V4.6z"/>
</g>
<g class="st0">
	<path class="st1" d="M17.6,0.5v14.7h2.8v4.3h-2.8V24h-4.4v-4.5H0.7L0.3,15L10.9,0.5H17.6z M13.3,15.2V4.3l-8,10.9H13.3z"/>
</g>
<g class="st0">
	<path class="st1" d="M8.9,13.3V10H12c2.2,0,4.5-0.6,4.5-2.6c0-1.2-1-2.9-4.4-2.9c-1.9,0-4.5,0.7-4.5,2.6H3.5c0-4.6,4.6-6.3,8.6-6.3
		c4.1,0,8.4,2,8.5,6.6c0,1.7-1.1,3.7-3,4.2c2.1,0.7,3.5,2.7,3.5,4.5c0,5.3-5,6.8-9.1,6.8s-8.8-1.7-8.8-6.6h4.1c0,2.2,3,3,4.7,3
		c2.1,0,4.8-0.9,4.8-3.2c0-1.3-0.7-2.9-4.6-2.9H8.9V13.3z"/>
</g>
</svg>
