<?xml version="1.0" encoding="utf-8"?>
<!-- Generator: Adobe Illustrator 20.1.0, SVG Export Plug-In . SVG Version: 6.00 Build 0)  -->
<svg version="1.1" id="Layer_1" xmlns="http://www.w3.org/2000/svg" xmlns:xlink="http://www.w3.org/1999/xlink" x="0px" y="0px"
	 viewBox="0 0 24 24" style="enable-background:new 0 0 24 24;" xml:space="preserve">
<style type="text/css">
	.st0{display:none;}
	.st1{display:inline;fill:#FFFFFF;}
	.st2{enable-background:new    ;}
	.st3{fill:#FFFFFF;}
	.st4{display:none;enable-background:new    ;}
	.st5{font-family:'NexaBold';}
	.st6{font-size:26.1858px;}
</style>
<g class="st0">
	<path class="st1" d="M23,0H1C0.4,0,0,0.4,0,1v22c0,0.6,0.4,1,1,1h22c0.6,0,1-0.4,1-1V1C24,0.4,23.6,0,23,0z M10,5c1.1,0,2,0.9,2,2
		s-0.9,2-2,2S8,8.1,8,7S8.9,5,10,5z M18.2,19H5.9c-0.8,0-1.3-0.9-0.8-1.6L7.3,14c0.4-0.5,1.1-0.6,1.5-0.2L11,16l3.1-3.9
		c0.4-0.5,1.3-0.5,1.6,0.1l3.3,5.3C19.5,18.1,19,19,18.2,19z"/>
</g>
<g class="st0">
	<path class="st1" d="M7.1,19.9h3.4V4.7H6.9V0.8h7.8v19.1h3.2v3.6H7.1V19.9z"/>
</g>
<g class="st2">
	<path class="st3" d="M2.7,7.2c0-4.9,4.6-7,8.9-7c4.6,0,9.6,1.9,9.6,7.3c0,5.8-4.4,7-9.2,7c-1.9,0-5,0.5-5,3v2h14.3v4H2.6
		c0-2,0-4,0-6c0-5.3,4.8-6.9,9.3-6.9c1.7,0,4.9-0.3,4.9-3c0-2.5-2.3-3.7-5.2-3.7C9.4,4,7.1,5.2,7,7.2H2.7z"/>
</g>
<text transform="matrix(1 0 0 1 3.7754 20.89)" class="st4 st5 st6">2</text>
</svg>
