<?xml version="1.0" encoding="utf-8"?>
<!-- Generator: Adobe Illustrator 20.1.0, SVG Export Plug-In . SVG Version: 6.00 Build 0)  -->
<svg version="1.1" id="Layer_1" xmlns="http://www.w3.org/2000/svg" xmlns:xlink="http://www.w3.org/1999/xlink" x="0px" y="0px"
	 viewBox="0 0 24 24" style="enable-background:new 0 0 24 24;" xml:space="preserve">
<style type="text/css">
	.st0{display:none;}
	.st1{display:inline;fill:#FFFFFF;}
	.st2{fill:#FFFFFF;}
	.st3{font-family:'NexaBold';}
	.st4{font-size:22.69px;}
</style>
<g class="st0">
	<path class="st1" d="M23,0H1C0.4,0,0,0.4,0,1v22c0,0.6,0.4,1,1,1h22c0.6,0,1-0.4,1-1V1C24,0.4,23.6,0,23,0z M10,5c1.1,0,2,0.9,2,2
		s-0.9,2-2,2S8,8.1,8,7S8.9,5,10,5z M18.2,19H5.9c-0.8,0-1.3-0.9-0.8-1.6L7.3,14c0.4-0.5,1.1-0.6,1.5-0.2L11,16l3.1-3.9
		c0.4-0.5,1.3-0.5,1.6,0.1l3.3,5.3C19.5,18.1,19,19,18.2,19z"/>
</g>
<g>
	<path class="st2" d="M7.1,19.9h3.4V4.7H6.9V0.8h7.8v19.1h3.2v3.6H7.1V19.9z"/>
</g>
<text transform="matrix(1 0 0 1 8.4269 20.1589)" class="st0 st3 st4">1</text>
</svg>
